<svg width="85" height="86" viewBox="0 0 85 86" fill="none" xmlns="http://www.w3.org/2000/svg">
<path d="M57.8012 38.2068C58.0505 38.455 58.2482 38.75 58.3831 39.0747C58.518 39.3994 58.5875 39.7475 58.5875 40.0991C58.5875 40.4507 58.518 40.7988 58.3831 41.1235C58.2482 41.4482 58.0505 41.7432 57.8012 41.9914L41.7439 58.0282C41.4953 58.2772 41.2 58.4746 40.8748 58.6094C40.5497 58.7441 40.2012 58.8135 39.8491 58.8135C39.4971 58.8135 39.1486 58.7441 38.8234 58.6094C38.4983 58.4746 38.203 58.2772 37.9544 58.0282L29.9257 50.0098C29.6769 49.7613 29.4795 49.4663 29.3448 49.1416C29.2102 48.8169 29.1409 48.4689 29.1409 48.1175C29.1409 47.7661 29.2102 47.4181 29.3448 47.0934C29.4795 46.7687 29.6769 46.4737 29.9257 46.2252C30.4282 45.7233 31.1098 45.4413 31.8205 45.4413C32.1724 45.4413 32.5208 45.5105 32.8459 45.645C33.171 45.7795 33.4664 45.9767 33.7152 46.2252L39.8491 52.3566L54.0117 38.2068C54.2603 37.9578 54.5556 37.7604 54.8808 37.6256C55.2059 37.4909 55.5545 37.4215 55.9065 37.4215C56.2585 37.4215 56.607 37.4909 56.9322 37.6256C57.2573 37.7604 57.5526 37.9578 57.8012 38.2068V38.2068Z" fill="#FFC179"/>
<path d="M18.4395 0.00708008C19.1493 0.00708008 19.83 0.288678 20.3319 0.789925C20.8338 1.29117 21.1157 1.97101 21.1157 2.67988V5.35268H63.9353V2.67988C63.9353 1.97101 64.2172 1.29117 64.7191 0.789925C65.221 0.288678 65.9017 0.00708008 66.6115 0.00708008C67.3213 0.00708008 68.002 0.288678 68.5039 0.789925C69.0058 1.29117 69.2877 1.97101 69.2877 2.67988V5.35268H74.6402C77.4793 5.35268 80.2021 6.47907 82.2097 8.48406C84.2172 10.489 85.3451 13.2084 85.3451 16.0439V74.8455C85.3451 77.681 84.2172 80.4003 82.2097 82.4053C80.2021 84.4103 77.4793 85.5367 74.6402 85.5367H10.4108C7.57171 85.5367 4.84888 84.4103 2.84132 82.4053C0.833766 80.4003 -0.294067 77.681 -0.294067 74.8455V16.0439C-0.294067 13.2084 0.833766 10.489 2.84132 8.48406C4.84888 6.47907 7.57171 5.35268 10.4108 5.35268H15.7633V2.67988C15.7633 1.97101 16.0452 1.29117 16.5471 0.789925C17.049 0.288678 17.7297 0.00708008 18.4395 0.00708008V0.00708008ZM5.05838 21.3895V74.8455C5.05838 76.2632 5.62229 77.6229 6.62607 78.6254C7.62985 79.6279 8.99127 80.1911 10.4108 80.1911H74.6402C76.0597 80.1911 77.4211 79.6279 78.4249 78.6254C79.4287 77.6229 79.9926 76.2632 79.9926 74.8455V21.3895H5.05838Z" fill="#FFC179"/>
</svg>
