<svg width="113" height="116" viewBox="0 0 113 116" fill="none" xmlns="http://www.w3.org/2000/svg">
<rect x="1.5" y="1.5" width="110" height="113" rx="8.5" fill="#E7E4E4" fill-opacity="0.8" stroke="white" stroke-width="3"/>
<path d="M39.0563 101V86.4545H43.9711C45.1122 86.4545 46.0449 86.6605 46.7694 87.0724C47.4985 87.4796 48.0383 88.0312 48.3887 88.7273C48.7391 89.4233 48.9142 90.1998 48.9142 91.0568C48.9142 91.9138 48.7391 92.6927 48.3887 93.3935C48.043 94.0942 47.508 94.6529 46.7836 95.0696C46.0591 95.4815 45.1311 95.6875 43.9995 95.6875H40.4767V94.125H43.9426C44.7239 94.125 45.3513 93.9901 45.8248 93.7202C46.2982 93.4503 46.6415 93.0857 46.8546 92.6264C47.0724 92.1624 47.1813 91.6392 47.1813 91.0568C47.1813 90.4744 47.0724 89.9536 46.8546 89.4943C46.6415 89.035 46.2959 88.6752 45.8176 88.4148C45.3394 88.1496 44.705 88.017 43.9142 88.017H40.8176V101H39.0563ZM53.2005 86.4545V101H51.5243V86.4545H53.2005ZM59.4806 101.256C58.7894 101.256 58.162 101.125 57.5985 100.865C57.0351 100.6 56.5877 100.219 56.2562 99.7216C55.9248 99.2197 55.7591 98.6136 55.7591 97.9034C55.7591 97.2784 55.8822 96.7718 56.1284 96.3835C56.3746 95.9905 56.7037 95.6828 57.1156 95.4602C57.5275 95.2377 57.9821 95.072 58.4792 94.9631C58.9811 94.8494 59.4854 94.7595 59.992 94.6932C60.6549 94.608 61.1923 94.544 61.6042 94.5014C62.0209 94.4541 62.3239 94.3759 62.5133 94.267C62.7074 94.1581 62.8045 93.9687 62.8045 93.6989V93.642C62.8045 92.9413 62.6127 92.3968 62.2292 92.0085C61.8504 91.6203 61.2752 91.4261 60.5034 91.4261C59.7032 91.4261 59.0758 91.6013 58.6213 91.9517C58.1667 92.3021 57.8471 92.6761 57.6625 93.0739L56.0716 92.5057C56.3556 91.8428 56.7344 91.3267 57.2079 90.9574C57.6861 90.5833 58.207 90.3229 58.7704 90.1761C59.3386 90.0246 59.8973 89.9489 60.4466 89.9489C60.7969 89.9489 61.1994 89.9915 61.6539 90.0767C62.1132 90.1572 62.5559 90.3253 62.9821 90.581C63.4129 90.8366 63.7704 91.2225 64.0545 91.7386C64.3386 92.2547 64.4806 92.946 64.4806 93.8125V101H62.8045V99.5227H62.7193C62.6056 99.7595 62.4163 100.013 62.1511 100.283C61.8859 100.553 61.5332 100.782 61.0929 100.972C60.6525 101.161 60.1151 101.256 59.4806 101.256ZM59.7363 99.75C60.3992 99.75 60.9579 99.6198 61.4125 99.3594C61.8717 99.099 62.2174 98.7628 62.4494 98.3509C62.6861 97.9389 62.8045 97.5057 62.8045 97.0511V95.517C62.7335 95.6023 62.5772 95.6804 62.3358 95.7514C62.099 95.8177 61.8244 95.8769 61.5119 95.929C61.2041 95.9763 60.9035 96.0189 60.6099 96.0568C60.3211 96.09 60.0867 96.1184 59.9068 96.142C59.4712 96.1989 59.064 96.2912 58.6852 96.419C58.3111 96.5421 58.0081 96.7292 57.7761 96.9801C57.5488 97.2263 57.4352 97.5625 57.4352 97.9886C57.4352 98.571 57.6506 99.0114 58.0815 99.3097C58.5171 99.6032 59.0687 99.75 59.7363 99.75ZM69.2161 94.4375V101H67.54V90.0909H69.1593V91.7955H69.3013C69.557 91.2415 69.9453 90.7964 70.4661 90.4602C70.9869 90.1193 71.6593 89.9489 72.4831 89.9489C73.2218 89.9489 73.8681 90.1004 74.4221 90.4034C74.976 90.7017 75.4069 91.1562 75.7147 91.767C76.0224 92.3731 76.1763 93.1402 76.1763 94.0682V101H74.5002V94.1818C74.5002 93.3248 74.2776 92.6572 73.8326 92.179C73.3875 91.696 72.7767 91.4545 72.0002 91.4545C71.4651 91.4545 70.9869 91.5705 70.5655 91.8026C70.1489 92.0346 69.8198 92.3731 69.5783 92.8182C69.3368 93.2633 69.2161 93.803 69.2161 94.4375Z" fill="black"/>
<g clip-path="url(#clip0_10_78)">
<path d="M64.5269 39.0981C64.6578 39.2288 64.7617 39.3839 64.8326 39.5548C64.9035 39.7256 64.94 39.9088 64.94 40.0938C64.94 40.2787 64.9035 40.4619 64.8326 40.6327C64.7617 40.8036 64.6578 40.9587 64.5269 41.0894L56.0894 49.5269C55.9587 49.6578 55.8036 49.7617 55.6327 49.8326C55.4619 49.9035 55.2787 49.94 55.0937 49.94C54.9088 49.94 54.7256 49.9035 54.5548 49.8326C54.3839 49.7617 54.2288 49.6578 54.0981 49.5269L49.8794 45.3081C49.7486 45.1774 49.6449 45.0222 49.5742 44.8513C49.5034 44.6805 49.467 44.4974 49.467 44.3125C49.467 44.1276 49.5034 43.9445 49.5742 43.7737C49.6449 43.6028 49.7486 43.4476 49.8794 43.3169C50.1434 43.0528 50.5016 42.9045 50.875 42.9045C51.0599 42.9045 51.243 42.9409 51.4138 43.0117C51.5847 43.0824 51.7399 43.1861 51.8706 43.3169L55.0937 46.5428L62.5356 39.0981C62.6663 38.9672 62.8214 38.8633 62.9923 38.7924C63.1631 38.7215 63.3463 38.685 63.5312 38.685C63.7162 38.685 63.8994 38.7215 64.0702 38.7924C64.2411 38.8633 64.3962 38.9672 64.5269 39.0981V39.0981Z" fill="#94FFAB"/>
<path d="M43.8438 19C44.2167 19 44.5744 19.1482 44.8381 19.4119C45.1018 19.6756 45.25 20.0333 45.25 20.4062V21.8125H67.75V20.4062C67.75 20.0333 67.8982 19.6756 68.1619 19.4119C68.4256 19.1482 68.7833 19 69.1562 19C69.5292 19 69.8869 19.1482 70.1506 19.4119C70.4143 19.6756 70.5625 20.0333 70.5625 20.4062V21.8125H73.375C74.8668 21.8125 76.2976 22.4051 77.3525 23.46C78.4074 24.5149 79 25.9457 79 27.4375V58.375C79 59.8668 78.4074 61.2976 77.3525 62.3525C76.2976 63.4074 74.8668 64 73.375 64H39.625C38.1332 64 36.7024 63.4074 35.6475 62.3525C34.5926 61.2976 34 59.8668 34 58.375V27.4375C34 25.9457 34.5926 24.5149 35.6475 23.46C36.7024 22.4051 38.1332 21.8125 39.625 21.8125H42.4375V20.4062C42.4375 20.0333 42.5857 19.6756 42.8494 19.4119C43.1131 19.1482 43.4708 19 43.8438 19V19ZM36.8125 30.25V58.375C36.8125 59.1209 37.1088 59.8363 37.6363 60.3637C38.1637 60.8912 38.8791 61.1875 39.625 61.1875H73.375C74.1209 61.1875 74.8363 60.8912 75.3637 60.3637C75.8912 59.8363 76.1875 59.1209 76.1875 58.375V30.25H36.8125Z" fill="#94FFAB"/>
</g>
<defs>
<clipPath id="clip0_10_78">
<rect x="34" y="19" width="45" height="45" rx="10" fill="white"/>
</clipPath>
</defs>
</svg>
