<svg width="113" height="116" viewBox="0 0 113 116" fill="none" xmlns="http://www.w3.org/2000/svg">
<rect x="1.5" y="1.5" width="110" height="113" rx="8.5" fill="#E7E4E4" fill-opacity="0.75" stroke="white" stroke-width="3"/>
<path d="M26.1692 84.4545V99H24.4078V84.4545H26.1692ZM31.1497 92.4375V99H29.4735V88.0909H31.0929V89.7955H31.2349C31.4906 89.2415 31.8788 88.7964 32.3997 88.4602C32.9205 88.1193 33.5929 87.9489 34.4167 87.9489C35.1554 87.9489 35.8017 88.1004 36.3556 88.4034C36.9096 88.7017 37.3405 89.1562 37.6483 89.767C37.956 90.3731 38.1099 91.1402 38.1099 92.0682V99H36.4338V92.1818C36.4338 91.3248 36.2112 90.6572 35.7662 90.179C35.3211 89.696 34.7103 89.4545 33.9338 89.4545C33.3987 89.4545 32.9205 89.5705 32.4991 89.8026C32.0824 90.0346 31.7534 90.3731 31.5119 90.8182C31.2704 91.2633 31.1497 91.803 31.1497 92.4375ZM48.9 90.5341L47.3944 90.9602C47.2997 90.7093 47.16 90.4654 46.9753 90.2287C46.7954 89.9872 46.5492 89.7884 46.2367 89.6321C45.9242 89.4759 45.5241 89.3977 45.0364 89.3977C44.3688 89.3977 43.8124 89.5516 43.3674 89.8594C42.927 90.1624 42.7069 90.5483 42.7069 91.017C42.7069 91.4337 42.8584 91.7628 43.1614 92.0043C43.4644 92.2457 43.9379 92.447 44.5819 92.608L46.2012 93.0057C47.1766 93.2424 47.9033 93.6046 48.3816 94.0923C48.8598 94.5753 49.0989 95.1979 49.0989 95.9602C49.0989 96.5852 48.919 97.1439 48.5591 97.6364C48.204 98.1288 47.7069 98.517 47.0676 98.8011C46.4284 99.0852 45.6851 99.2273 44.8375 99.2273C43.7248 99.2273 42.8039 98.9858 42.0748 98.5028C41.3456 98.0199 40.8839 97.3144 40.6898 96.3864L42.2807 95.9886C42.4322 96.5758 42.7187 97.0161 43.1401 97.3097C43.5662 97.6032 44.1226 97.75 44.8091 97.75C45.5904 97.75 46.2106 97.5843 46.6699 97.2528C47.1339 96.9167 47.3659 96.5142 47.3659 96.0455C47.3659 95.6667 47.2334 95.3494 46.9682 95.0938C46.7031 94.8333 46.2959 94.6392 45.7466 94.5114L43.9284 94.0852C42.9294 93.8485 42.1955 93.4815 41.7267 92.9844C41.2627 92.4825 41.0307 91.8551 41.0307 91.1023C41.0307 90.4867 41.2035 89.9422 41.5492 89.4688C41.8996 88.9953 42.3754 88.6236 42.9767 88.3537C43.5828 88.0838 44.2694 87.9489 45.0364 87.9489C46.1159 87.9489 46.9635 88.1856 47.579 88.6591C48.1993 89.1326 48.6396 89.7576 48.9 90.5341ZM51.622 103.091V88.0909H53.2413V89.8239H53.4402C53.5633 89.6345 53.7337 89.393 53.9515 89.0994C54.1741 88.8011 54.4913 88.536 54.9032 88.304C55.3199 88.0672 55.8833 87.9489 56.5936 87.9489C57.5121 87.9489 58.3218 88.1785 59.0225 88.6378C59.7233 89.0971 60.2702 89.7481 60.6632 90.5909C61.0562 91.4337 61.2527 92.428 61.2527 93.5739C61.2527 94.7292 61.0562 95.7306 60.6632 96.5781C60.2702 97.4209 59.7257 98.0743 59.0297 98.5384C58.3336 98.9976 57.5311 99.2273 56.622 99.2273C55.9212 99.2273 55.3601 99.1113 54.9387 98.8793C54.5173 98.6425 54.193 98.375 53.9657 98.0767C53.7385 97.7737 53.5633 97.5227 53.4402 97.3239H53.2981V103.091H51.622ZM53.2697 93.5455C53.2697 94.3693 53.3904 95.0961 53.6319 95.7259C53.8734 96.3509 54.2261 96.8409 54.6902 97.196C55.1542 97.5464 55.7224 97.7216 56.3947 97.7216C57.0955 97.7216 57.6802 97.5369 58.149 97.1676C58.6225 96.7936 58.9776 96.2917 59.2143 95.6619C59.4558 95.0275 59.5765 94.322 59.5765 93.5455C59.5765 92.7784 59.4582 92.0871 59.2214 91.4716C58.9894 90.8513 58.6367 90.3613 58.1632 90.0014C57.6944 89.6368 57.1049 89.4545 56.3947 89.4545C55.7129 89.4545 55.14 89.6274 54.676 89.973C54.2119 90.3139 53.8616 90.7921 53.6248 91.4077C53.3881 92.0185 53.2697 92.7311 53.2697 93.5455ZM68.3833 99.2273C67.3322 99.2273 66.4255 98.9953 65.6632 98.5312C64.9056 98.0625 64.3208 97.4091 63.9089 96.571C63.5017 95.7282 63.2981 94.7481 63.2981 93.6307C63.2981 92.5133 63.5017 91.5284 63.9089 90.6761C64.3208 89.8191 64.8938 89.1515 65.6277 88.6733C66.3663 88.1903 67.228 87.9489 68.2129 87.9489C68.7811 87.9489 69.3422 88.0436 69.8961 88.233C70.4501 88.4223 70.9544 88.7301 71.4089 89.1562C71.8635 89.5777 72.2257 90.1364 72.4956 90.8324C72.7654 91.5284 72.9004 92.3854 72.9004 93.4034V94.1136H64.4913V92.6648H71.1958C71.1958 92.0492 71.0727 91.5 70.8265 91.017C70.585 90.5341 70.2394 90.1529 69.7896 89.8736C69.3445 89.5942 68.819 89.4545 68.2129 89.4545C67.5453 89.4545 66.9676 89.6203 66.4799 89.9517C65.997 90.2784 65.6253 90.7045 65.3649 91.2301C65.1045 91.7557 64.9743 92.3191 64.9743 92.9205V93.8864C64.9743 94.7102 65.1163 95.4086 65.4004 95.9815C65.6892 96.5497 66.0893 96.983 66.6007 97.2812C67.112 97.5748 67.7063 97.7216 68.3833 97.7216C68.8237 97.7216 69.2214 97.66 69.5765 97.5369C69.9364 97.4091 70.2465 97.2197 70.5069 96.9688C70.7673 96.7131 70.9686 96.3958 71.1106 96.017L72.7299 96.4716C72.5595 97.0208 72.273 97.5038 71.8706 97.9205C71.4681 98.3324 70.9709 98.6544 70.3791 98.8864C69.7872 99.1136 69.122 99.2273 68.3833 99.2273ZM79.8819 99.2273C78.8592 99.2273 77.9785 98.9858 77.2399 98.5028C76.5012 98.0199 75.9331 97.3546 75.5353 96.5071C75.1376 95.6596 74.9387 94.6913 74.9387 93.6023C74.9387 92.4943 75.1423 91.5166 75.5495 90.669C75.9615 89.8168 76.5344 89.1515 77.2683 88.6733C78.0069 88.1903 78.8687 87.9489 79.8535 87.9489C80.6206 87.9489 81.3118 88.0909 81.9274 88.375C82.5429 88.6591 83.0472 89.0568 83.4402 89.5682C83.8332 90.0795 84.077 90.6761 84.1717 91.358H82.4956C82.3677 90.8608 82.0836 90.4205 81.6433 90.0369C81.2077 89.6487 80.6206 89.4545 79.8819 89.4545C79.2285 89.4545 78.6556 89.625 78.1632 89.9659C77.6755 90.3021 77.2943 90.7779 77.0197 91.3935C76.7498 92.0043 76.6149 92.7216 76.6149 93.5455C76.6149 94.3883 76.7475 95.1222 77.0126 95.7472C77.2825 96.3722 77.6613 96.8575 78.149 97.2031C78.6414 97.5488 79.219 97.7216 79.8819 97.7216C80.3175 97.7216 80.7129 97.6458 81.068 97.4943C81.4231 97.3428 81.7238 97.125 81.97 96.8409C82.2162 96.5568 82.3914 96.2159 82.4956 95.8182H84.1717C84.077 96.4621 83.8426 97.0421 83.4686 97.5582C83.0993 98.0696 82.6092 98.4768 81.9984 98.7798C81.3923 99.0781 80.6868 99.2273 79.8819 99.2273ZM91.3663 88.0909V89.5114H85.7129V88.0909H91.3663ZM87.3606 85.4773H89.0368V95.875C89.0368 96.3485 89.1054 96.7036 89.2427 96.9403C89.3848 97.1723 89.5647 97.3286 89.7825 97.4091C90.005 97.4848 90.2394 97.5227 90.4856 97.5227C90.6703 97.5227 90.8218 97.5133 90.9402 97.4943C91.0585 97.4706 91.1532 97.4517 91.2243 97.4375L91.5652 98.9432C91.4515 98.9858 91.2929 99.0284 91.0893 99.071C90.8857 99.1184 90.6277 99.142 90.3152 99.142C89.8417 99.142 89.3777 99.0402 88.9231 98.8366C88.4733 98.633 88.0993 98.3229 87.801 97.9062C87.5074 97.4896 87.3606 96.964 87.3606 96.3295V85.4773Z" fill="black"/>
<path d="M59.4467 18C59.76 18 60.0605 18.1447 60.2821 18.4024C60.5036 18.66 60.6281 19.0094 60.6281 19.3737C60.6281 19.7381 60.7526 20.0875 60.9741 20.3451C61.1957 20.6028 61.4962 20.7475 61.8095 20.7475C62.1228 20.7475 62.4233 20.8922 62.6449 21.1499C62.8665 21.4075 62.9909 21.7569 62.9909 22.1212V23.495C62.9909 23.8593 62.8665 24.2087 62.6449 24.4664C62.4233 24.724 62.1228 24.8687 61.8095 24.8687H49.9955C49.6821 24.8687 49.3816 24.724 49.1601 24.4664C48.9385 24.2087 48.8141 23.8593 48.8141 23.495V22.1212C48.8141 21.7569 48.9385 21.4075 49.1601 21.1499C49.3816 20.8922 49.6821 20.7475 49.9955 20.7475C50.3088 20.7475 50.6093 20.6028 50.8308 20.3451C51.0524 20.0875 51.1769 19.7381 51.1769 19.3737C51.1769 19.0094 51.3013 18.66 51.5229 18.4024C51.7444 18.1447 52.0449 18 52.3583 18H59.4467Z" fill="white"/>
<path d="M44.0884 24.8687C44.0884 24.5044 44.2129 24.155 44.4345 23.8973C44.656 23.6397 44.9565 23.495 45.2698 23.495H46.4512C46.7646 23.495 47.0651 23.3502 47.2866 23.0926C47.5082 22.835 47.6326 22.4856 47.6326 22.1212C47.6326 21.7569 47.5082 21.4075 47.2866 21.1499C47.0651 20.8922 46.7646 20.7475 46.4512 20.7475H45.2698C44.3298 20.7475 43.4284 21.1817 42.7637 21.9546C42.099 22.7275 41.7256 23.7757 41.7256 24.8687V57.8386C41.7256 58.9317 42.099 59.9799 42.7637 60.7528C43.4284 61.5257 44.3298 61.9599 45.2698 61.9599H66.5351C67.4751 61.9599 68.3766 61.5257 69.0413 60.7528C69.7059 59.9799 70.0793 58.9317 70.0793 57.8386V24.8687C70.0793 23.7757 69.7059 22.7275 69.0413 21.9546C68.3766 21.1817 67.4751 20.7475 66.5351 20.7475H65.3537C65.0404 20.7475 64.7399 20.8922 64.5183 21.1499C64.2968 21.4075 64.1723 21.7569 64.1723 22.1212C64.1723 22.4856 64.2968 22.835 64.5183 23.0926C64.7399 23.3502 65.0404 23.495 65.3537 23.495H66.5351C66.8485 23.495 67.1489 23.6397 67.3705 23.8973C67.5921 24.155 67.7165 24.5044 67.7165 24.8687V57.8386C67.7165 58.203 67.5921 58.5524 67.3705 58.81C67.1489 59.0676 66.8485 59.2124 66.5351 59.2124H45.2698C44.9565 59.2124 44.656 59.0676 44.4345 58.81C44.2129 58.5524 44.0884 58.203 44.0884 57.8386V24.8687Z" fill="white"/>
<path d="M57.0839 35.8587C57.0839 35.4944 56.9594 35.1449 56.7379 34.8873C56.5163 34.6297 56.2158 34.4849 55.9025 34.4849C55.5892 34.4849 55.2887 34.6297 55.0671 34.8873C54.8455 35.1449 54.7211 35.4944 54.7211 35.8587V39.9799H51.1769C50.8635 39.9799 50.563 40.1247 50.3415 40.3823C50.1199 40.6399 49.9955 40.9893 49.9955 41.3537C49.9955 41.718 50.1199 42.0674 50.3415 42.3251C50.563 42.5827 50.8635 42.7274 51.1769 42.7274H54.7211V46.8487C54.7211 47.213 54.8455 47.5624 55.0671 47.82C55.2887 48.0777 55.5892 48.2224 55.9025 48.2224C56.2158 48.2224 56.5163 48.0777 56.7379 47.82C56.9594 47.5624 57.0839 47.213 57.0839 46.8487V42.7274H60.6281C60.9414 42.7274 61.2419 42.5827 61.4635 42.3251C61.685 42.0674 61.8095 41.718 61.8095 41.3537C61.8095 40.9893 61.685 40.6399 61.4635 40.3823C61.2419 40.1247 60.9414 39.9799 60.6281 39.9799H57.0839V35.8587Z" fill="white"/>
</svg>
