<svg width="113" height="116" viewBox="0 0 113 116" fill="none" xmlns="http://www.w3.org/2000/svg">
<rect x="1.5" y="1.5" width="110" height="113" rx="8.5" fill="#E7E4E4" fill-opacity="0.8" stroke="white" stroke-width="3"/>
<path d="M20.3317 86.4545H22.4339L27.3771 98.5284H27.5476L32.4908 86.4545H34.593V101H32.9453V89.9489H32.8033L28.2578 101H26.6669L22.1214 89.9489H21.9794V101H20.3317V86.4545ZM41.1076 101.256C40.4163 101.256 39.7889 101.125 39.2255 100.865C38.6621 100.6 38.2146 100.219 37.8832 99.7216C37.5517 99.2197 37.386 98.6136 37.386 97.9034C37.386 97.2784 37.5091 96.7718 37.7553 96.3835C38.0015 95.9905 38.3306 95.6828 38.7425 95.4602C39.1545 95.2377 39.609 95.072 40.1062 94.9631C40.6081 94.8494 41.1123 94.7595 41.619 94.6932C42.2818 94.608 42.8192 94.544 43.2312 94.5014C43.6478 94.4541 43.9509 94.3759 44.1403 94.267C44.3344 94.1581 44.4315 93.9687 44.4315 93.6989V93.642C44.4315 92.9413 44.2397 92.3968 43.8562 92.0085C43.4774 91.6203 42.9021 91.4261 42.1303 91.4261C41.3301 91.4261 40.7028 91.6013 40.2482 91.9517C39.7937 92.3021 39.4741 92.6761 39.2894 93.0739L37.6985 92.5057C37.9826 91.8428 38.3614 91.3267 38.8349 90.9574C39.3131 90.5833 39.8339 90.3229 40.3974 90.1761C40.9656 90.0246 41.5243 89.9489 42.0735 89.9489C42.4239 89.9489 42.8263 89.9915 43.2809 90.0767C43.7402 90.1572 44.1829 90.3253 44.609 90.581C45.0399 90.8366 45.3974 91.2225 45.6815 91.7386C45.9656 92.2547 46.1076 92.946 46.1076 93.8125V101H44.4315V99.5227H44.3462C44.2326 99.7595 44.0432 100.013 43.7781 100.283C43.5129 100.553 43.1602 100.782 42.7198 100.972C42.2795 101.161 41.7421 101.256 41.1076 101.256ZM41.3633 99.75C42.0262 99.75 42.5849 99.6198 43.0394 99.3594C43.4987 99.099 43.8443 98.7628 44.0763 98.3509C44.3131 97.9389 44.4315 97.5057 44.4315 97.0511V95.517C44.3604 95.6023 44.2042 95.6804 43.9627 95.7514C43.726 95.8177 43.4513 95.8769 43.1388 95.929C42.8311 95.9763 42.5304 96.0189 42.2369 96.0568C41.948 96.09 41.7137 96.1184 41.5337 96.142C41.0981 96.1989 40.6909 96.2912 40.3121 96.419C39.9381 96.5421 39.6351 96.7292 39.4031 96.9801C39.1758 97.2263 39.0621 97.5625 39.0621 97.9886C39.0621 98.571 39.2776 99.0114 39.7085 99.3097C40.1441 99.6032 40.6957 99.75 41.3633 99.75ZM50.843 94.4375V101H49.1669V90.0909H50.7862V91.7955H50.9283C51.1839 91.2415 51.5722 90.7964 52.093 90.4602C52.6139 90.1193 53.2862 89.9489 54.1101 89.9489C54.8487 89.9489 55.495 90.1004 56.049 90.4034C56.603 90.7017 57.0339 91.1562 57.3416 91.767C57.6494 92.3731 57.8033 93.1402 57.8033 94.0682V101H56.1271V94.1818C56.1271 93.3248 55.9046 92.6572 55.4595 92.179C55.0144 91.696 54.4036 91.4545 53.6271 91.4545C53.0921 91.4545 52.6139 91.5705 52.1925 91.8026C51.7758 92.0346 51.4467 92.3731 51.2053 92.8182C50.9638 93.2633 50.843 93.803 50.843 94.4375ZM64.0763 101.256C63.3851 101.256 62.7577 101.125 62.1942 100.865C61.6308 100.6 61.1834 100.219 60.8519 99.7216C60.5205 99.2197 60.3548 98.6136 60.3548 97.9034C60.3548 97.2784 60.4779 96.7718 60.7241 96.3835C60.9703 95.9905 61.2994 95.6828 61.7113 95.4602C62.1232 95.2377 62.5778 95.072 63.0749 94.9631C63.5768 94.8494 64.0811 94.7595 64.5877 94.6932C65.2506 94.608 65.788 94.544 66.1999 94.5014C66.6166 94.4541 66.9196 94.3759 67.109 94.267C67.3031 94.1581 67.4002 93.9687 67.4002 93.6989V93.642C67.4002 92.9413 67.2085 92.3968 66.8249 92.0085C66.4461 91.6203 65.8709 91.4261 65.0991 91.4261C64.2989 91.4261 63.6715 91.6013 63.217 91.9517C62.7624 92.3021 62.4428 92.6761 62.2582 93.0739L60.6673 92.5057C60.9513 91.8428 61.3301 91.3267 61.8036 90.9574C62.2818 90.5833 62.8027 90.3229 63.3661 90.1761C63.9343 90.0246 64.493 89.9489 65.0423 89.9489C65.3926 89.9489 65.7951 89.9915 66.2496 90.0767C66.7089 90.1572 67.1516 90.3253 67.5778 90.581C68.0086 90.8366 68.3661 91.2225 68.6502 91.7386C68.9343 92.2547 69.0763 92.946 69.0763 93.8125V101H67.4002V99.5227H67.315C67.2013 99.7595 67.012 100.013 66.7468 100.283C66.4817 100.553 66.1289 100.782 65.6886 100.972C65.2482 101.161 64.7108 101.256 64.0763 101.256ZM64.332 99.75C64.9949 99.75 65.5536 99.6198 66.0082 99.3594C66.4674 99.099 66.8131 98.7628 67.0451 98.3509C67.2818 97.9389 67.4002 97.5057 67.4002 97.0511V95.517C67.3292 95.6023 67.1729 95.6804 66.9315 95.7514C66.6947 95.8177 66.4201 95.8769 66.1076 95.929C65.7998 95.9763 65.4992 96.0189 65.2056 96.0568C64.9168 96.09 64.6824 96.1184 64.5025 96.142C64.0669 96.1989 63.6597 96.2912 63.2809 96.419C62.9068 96.5421 62.6038 96.7292 62.3718 96.9801C62.1445 97.2263 62.0309 97.5625 62.0309 97.9886C62.0309 98.571 62.2463 99.0114 62.6772 99.3097C63.1128 99.6032 63.6644 99.75 64.332 99.75ZM76.5391 105.318C75.7294 105.318 75.0334 105.214 74.451 105.006C73.8686 104.802 73.3833 104.532 72.995 104.196C72.6115 103.865 72.3061 103.509 72.0788 103.131L73.4141 102.193C73.5656 102.392 73.7573 102.619 73.9893 102.875C74.2214 103.135 74.5386 103.36 74.9411 103.55C75.3482 103.744 75.8809 103.841 76.5391 103.841C77.4197 103.841 78.1465 103.628 78.7195 103.202C79.2924 102.776 79.5788 102.108 79.5788 101.199V98.983H79.4368C79.3137 99.1818 79.1385 99.428 78.9112 99.7216C78.6887 100.01 78.3667 100.268 77.9453 100.496C77.5286 100.718 76.9652 100.83 76.255 100.83C75.3743 100.83 74.5836 100.621 73.8828 100.205C73.1868 99.7879 72.6352 99.1818 72.228 98.3864C71.8255 97.5909 71.6243 96.625 71.6243 95.4886C71.6243 94.3712 71.8208 93.3982 72.2138 92.5696C72.6068 91.7363 73.1536 91.0923 73.8544 90.6378C74.5552 90.1785 75.3648 89.9489 76.2834 89.9489C76.9936 89.9489 77.5571 90.0672 77.9737 90.304C78.3951 90.536 78.7171 90.8011 78.9396 91.0994C79.1669 91.393 79.3421 91.6345 79.4652 91.8239H79.6357V90.0909H81.255V101.312C81.255 102.25 81.0419 103.012 80.6158 103.599C80.1944 104.191 79.6262 104.625 78.9112 104.899C78.201 105.179 77.4103 105.318 76.5391 105.318ZM76.4822 99.3239C77.1546 99.3239 77.7228 99.17 78.1868 98.8622C78.6508 98.5545 79.0036 98.1117 79.245 97.5341C79.4865 96.9564 79.6072 96.2652 79.6072 95.4602C79.6072 94.6742 79.4889 93.9806 79.2521 93.3793C79.0154 92.7779 78.665 92.3068 78.201 91.9659C77.737 91.625 77.1641 91.4545 76.4822 91.4545C75.772 91.4545 75.1802 91.6345 74.7067 91.9943C74.2379 92.3542 73.8852 92.8371 73.6484 93.4432C73.4164 94.0492 73.3004 94.7216 73.3004 95.4602C73.3004 96.2178 73.4188 96.8878 73.6555 97.4702C73.897 98.0478 74.2521 98.5024 74.7209 98.8338C75.1944 99.1605 75.7815 99.3239 76.4822 99.3239ZM88.897 101.227C87.8459 101.227 86.9392 100.995 86.1768 100.531C85.4193 100.062 84.8345 99.4091 84.4226 98.571C84.0154 97.7282 83.8118 96.7481 83.8118 95.6307C83.8118 94.5133 84.0154 93.5284 84.4226 92.6761C84.8345 91.8191 85.4074 91.1515 86.1413 90.6733C86.88 90.1903 87.7417 89.9489 88.7266 89.9489C89.2947 89.9489 89.8558 90.0436 90.4098 90.233C90.9638 90.4223 91.468 90.7301 91.9226 91.1562C92.3771 91.5777 92.7393 92.1364 93.0092 92.8324C93.2791 93.5284 93.4141 94.3854 93.4141 95.4034V96.1136H85.005V94.6648H91.7095C91.7095 94.0492 91.5864 93.5 91.3402 93.017C91.0987 92.5341 90.7531 92.1529 90.3033 91.8736C89.8582 91.5942 89.3326 91.4545 88.7266 91.4545C88.0589 91.4545 87.4813 91.6203 86.9936 91.9517C86.5107 92.2784 86.139 92.7045 85.8786 93.2301C85.6181 93.7557 85.4879 94.3191 85.4879 94.9205V95.8864C85.4879 96.7102 85.63 97.4086 85.9141 97.9815C86.2029 98.5497 86.603 98.983 87.1143 99.2812C87.6257 99.5748 88.2199 99.7216 88.897 99.7216C89.3374 99.7216 89.7351 99.66 90.0902 99.5369C90.45 99.4091 90.7602 99.2197 91.0206 98.9688C91.281 98.7131 91.4822 98.3958 91.6243 98.017L93.2436 98.4716C93.0732 99.0208 92.7867 99.5038 92.3842 99.9205C91.9818 100.332 91.4846 100.654 90.8928 100.886C90.3009 101.114 89.6357 101.227 88.897 101.227Z" fill="black"/>
<path fill-rule="evenodd" clip-rule="evenodd" d="M50.625 28.4062C50.625 27.2376 51.0892 26.1169 51.9156 25.2906C52.7419 24.4642 53.8626 24 55.0312 24H57.9688C59.1374 24 60.2581 24.4642 61.0844 25.2906C61.9108 26.1169 62.375 27.2376 62.375 28.4062V31.3438C62.375 32.5124 61.9108 33.6331 61.0844 34.4594C60.2581 35.2858 59.1374 35.75 57.9688 35.75V38.6875H74.125C74.5145 38.6875 74.8881 38.8422 75.1636 39.1177C75.439 39.3931 75.5938 39.7667 75.5938 40.1562V43.0938C75.5938 43.4833 75.439 43.8569 75.1636 44.1323C74.8881 44.4078 74.5145 44.5625 74.125 44.5625C73.7355 44.5625 73.3619 44.4078 73.0864 44.1323C72.811 43.8569 72.6562 43.4833 72.6562 43.0938V41.625H57.9688V43.0938C57.9688 43.4833 57.814 43.8569 57.5386 44.1323C57.2631 44.4078 56.8895 44.5625 56.5 44.5625C56.1105 44.5625 55.7369 44.4078 55.4614 44.1323C55.186 43.8569 55.0312 43.4833 55.0312 43.0938V41.625H40.3438V43.0938C40.3438 43.4833 40.189 43.8569 39.9136 44.1323C39.6381 44.4078 39.2645 44.5625 38.875 44.5625C38.4855 44.5625 38.1119 44.4078 37.8364 44.1323C37.561 43.8569 37.4062 43.4833 37.4062 43.0938V40.1562C37.4062 39.7667 37.561 39.3931 37.8364 39.1177C38.1119 38.8422 38.4855 38.6875 38.875 38.6875H55.0312V35.75C53.8626 35.75 52.7419 35.2858 51.9156 34.4594C51.0892 33.6331 50.625 32.5124 50.625 31.3438V28.4062ZM57.9688 32.8125C58.3583 32.8125 58.7319 32.6578 59.0073 32.3823C59.2828 32.1069 59.4375 31.7333 59.4375 31.3438V28.4062C59.4375 28.0167 59.2828 27.6431 59.0073 27.3677C58.7319 27.0922 58.3583 26.9375 57.9688 26.9375H55.0312C54.6417 26.9375 54.2681 27.0922 53.9927 27.3677C53.7172 27.6431 53.5625 28.0167 53.5625 28.4062V31.3438C53.5625 31.7333 53.7172 32.1069 53.9927 32.3823C54.2681 32.6578 54.6417 32.8125 55.0312 32.8125H57.9688ZM33 51.9062C33 50.7376 33.4642 49.6169 34.2906 48.7906C35.1169 47.9642 36.2376 47.5 37.4062 47.5H40.3438C41.5124 47.5 42.6331 47.9642 43.4594 48.7906C44.2858 49.6169 44.75 50.7376 44.75 51.9062V54.8438C44.75 56.0124 44.2858 57.1331 43.4594 57.9594C42.6331 58.7858 41.5124 59.25 40.3438 59.25H37.4062C36.2376 59.25 35.1169 58.7858 34.2906 57.9594C33.4642 57.1331 33 56.0124 33 54.8438V51.9062ZM37.4062 50.4375C37.0167 50.4375 36.6431 50.5922 36.3677 50.8677C36.0922 51.1431 35.9375 51.5167 35.9375 51.9062V54.8438C35.9375 55.2333 36.0922 55.6069 36.3677 55.8823C36.6431 56.1578 37.0167 56.3125 37.4062 56.3125H40.3438C40.7333 56.3125 41.1069 56.1578 41.3823 55.8823C41.6578 55.6069 41.8125 55.2333 41.8125 54.8438V51.9062C41.8125 51.5167 41.6578 51.1431 41.3823 50.8677C41.1069 50.5922 40.7333 50.4375 40.3438 50.4375H37.4062ZM50.625 51.9062C50.625 50.7376 51.0892 49.6169 51.9156 48.7906C52.7419 47.9642 53.8626 47.5 55.0312 47.5H57.9688C59.1374 47.5 60.2581 47.9642 61.0844 48.7906C61.9108 49.6169 62.375 50.7376 62.375 51.9062V54.8438C62.375 56.0124 61.9108 57.1331 61.0844 57.9594C60.2581 58.7858 59.1374 59.25 57.9688 59.25H55.0312C53.8626 59.25 52.7419 58.7858 51.9156 57.9594C51.0892 57.1331 50.625 56.0124 50.625 54.8438V51.9062ZM55.0312 50.4375C54.6417 50.4375 54.2681 50.5922 53.9927 50.8677C53.7172 51.1431 53.5625 51.5167 53.5625 51.9062V54.8438C53.5625 55.2333 53.7172 55.6069 53.9927 55.8823C54.2681 56.1578 54.6417 56.3125 55.0312 56.3125H57.9688C58.3583 56.3125 58.7319 56.1578 59.0073 55.8823C59.2828 55.6069 59.4375 55.2333 59.4375 54.8438V51.9062C59.4375 51.5167 59.2828 51.1431 59.0073 50.8677C58.7319 50.5922 58.3583 50.4375 57.9688 50.4375H55.0312ZM68.25 51.9062C68.25 50.7376 68.7142 49.6169 69.5406 48.7906C70.3669 47.9642 71.4876 47.5 72.6562 47.5H75.5938C76.7624 47.5 77.8831 47.9642 78.7094 48.7906C79.5358 49.6169 80 50.7376 80 51.9062V54.8438C80 56.0124 79.5358 57.1331 78.7094 57.9594C77.8831 58.7858 76.7624 59.25 75.5938 59.25H72.6562C71.4876 59.25 70.3669 58.7858 69.5406 57.9594C68.7142 57.1331 68.25 56.0124 68.25 54.8438V51.9062ZM72.6562 50.4375C72.2667 50.4375 71.8931 50.5922 71.6177 50.8677C71.3422 51.1431 71.1875 51.5167 71.1875 51.9062V54.8438C71.1875 55.2333 71.3422 55.6069 71.6177 55.8823C71.8931 56.1578 72.2667 56.3125 72.6562 56.3125H75.5938C75.9833 56.3125 76.3569 56.1578 76.6323 55.8823C76.9078 55.6069 77.0625 55.2333 77.0625 54.8438V51.9062C77.0625 51.5167 76.9078 51.1431 76.6323 50.8677C76.3569 50.5922 75.9833 50.4375 75.5938 50.4375H72.6562Z" fill="#FFC179"/>
</svg>
