<svg width="183" height="160" viewBox="0 0 183 160" fill="none" xmlns="http://www.w3.org/2000/svg">
<g clip-path="url(#clip0_12_51)">
<path d="M40 160C62.0914 160 80 142.091 80 120C80 97.9086 62.0914 80 40 80C17.9086 80 0 97.9086 0 120C0 142.091 17.9086 160 40 160Z" fill="#CCCCCC"/>
<path d="M143 160C165.091 160 183 142.091 183 120C183 97.9086 165.091 80 143 80C120.909 80 103 97.9086 103 120C103 142.091 120.909 160 143 160Z" fill="#FFC179"/>
<path d="M91 80C113.091 80 131 62.0914 131 40C131 17.9086 113.091 0 91 0C68.9086 0 51 17.9086 51 40C51 62.0914 68.9086 80 91 80Z" fill="#9AEEAC"/>
</g>
<defs>
<clipPath id="clip0_12_51">
<rect width="183" height="160" fill="white"/>
</clipPath>
</defs>
</svg>
