<svg width="1045" height="176" viewBox="0 0 1045 176" fill="none" xmlns="http://www.w3.org/2000/svg">
<g clip-path="url(#clip0_119_21)">
<path d="M40 160C62.0914 160 80 142.091 80 120C80 97.9086 62.0914 80 40 80C17.9086 80 0 97.9086 0 120C0 142.091 17.9086 160 40 160Z" fill="#CCCCCC"/>
<path d="M143 160C165.091 160 183 142.091 183 120C183 97.9086 165.091 80 143 80C120.909 80 103 97.9086 103 120C103 142.091 120.909 160 143 160Z" fill="#FFC179"/>
<path d="M91 80C113.091 80 131 62.0914 131 40C131 17.9086 113.091 0 91 0C68.9086 0 51 17.9086 51 40C51 62.0914 68.9086 80 91 80Z" fill="#9AEEAC"/>
</g>
<path d="M242.565 109.68C242.394 110.363 242.309 111.301 242.309 112.496C242.309 116.933 244.698 119.152 249.477 119.152C252.207 119.152 254.938 118.341 257.669 116.72L260.613 130.928C256.175 133.659 250.415 135.024 243.333 135.024C236.847 135.024 231.642 133.317 227.717 129.904C223.877 126.491 221.957 121.797 221.957 115.824C221.957 114.117 222.17 112.112 222.597 109.808L234.501 49.904H254.469L251.141 66.672H268.165L265.093 82.032H248.069L242.565 109.68ZM301.971 73.328C304.957 70.0853 308.541 67.7387 312.723 66.288C316.989 64.8373 321.981 64.112 327.699 64.112L324.115 82.544C321.725 82.3733 320.189 82.288 319.507 82.288C313.448 82.288 308.584 83.7813 304.915 86.768C301.331 89.7547 298.899 94.4053 297.619 100.72L290.963 134H270.995L284.691 65.136H303.635L301.971 73.328ZM339.316 65.136H359.156L345.46 134H325.62L339.316 65.136ZM352.628 55.536C349.214 55.536 346.398 54.5547 344.18 52.592C342.046 50.544 340.98 48.0693 340.98 45.168C340.98 41.7547 342.174 38.9387 344.564 36.72C347.038 34.416 350.238 33.264 354.164 33.264C357.662 33.264 360.478 34.2453 362.612 36.208C364.83 38.0853 365.94 40.432 365.94 43.248C365.94 46.9173 364.702 49.904 362.228 52.208C359.753 54.4267 356.553 55.536 352.628 55.536ZM416.347 64.112C421.723 64.112 426.672 65.3493 431.195 67.824C435.803 70.2987 439.429 73.8827 442.075 78.576C444.805 83.184 446.171 88.6453 446.171 94.96C446.171 102.555 444.464 109.424 441.051 115.568C437.723 121.627 433.157 126.405 427.354 129.904C421.552 133.317 415.109 135.024 408.027 135.024C397.531 135.024 390.107 131.611 385.755 124.784L378.971 158.832H359.002L377.691 65.136H396.635L395.227 71.92C400.944 66.7147 407.984 64.112 416.347 64.112ZM405.723 118.512C409.648 118.512 413.147 117.573 416.219 115.696C419.291 113.733 421.68 111.045 423.387 107.632C425.093 104.219 425.947 100.293 425.947 95.856C425.947 91.1627 424.539 87.4507 421.723 84.72C418.992 81.9893 415.152 80.624 410.203 80.624C406.363 80.624 402.907 81.6053 399.835 83.568C396.763 85.4453 394.373 88.0907 392.667 91.504C390.96 94.9173 390.107 98.8427 390.107 103.28C390.107 107.973 391.472 111.685 394.203 114.416C396.933 117.147 400.773 118.512 405.723 118.512ZM476.69 135.024C470.29 135.024 465.298 133.403 461.714 130.16C458.13 126.917 456.338 122.395 456.338 116.592C456.338 114.8 456.551 112.709 456.978 110.32L471.314 39.024H491.282L477.074 109.808C476.903 110.491 476.818 111.429 476.818 112.624C476.818 114.757 477.415 116.379 478.61 117.488C479.89 118.597 481.639 119.152 483.858 119.152C486.076 119.152 487.954 118.811 489.49 118.128L487.442 133.36C484.028 134.469 480.444 135.024 476.69 135.024ZM537.979 64.112C547.792 64.112 555.685 66.8 561.659 72.176C567.717 77.552 570.747 85.232 570.747 95.216C570.747 96.9227 570.704 98.2027 570.619 99.056L517.499 108.784C519.291 115.611 525.051 119.024 534.779 119.024C538.363 119.024 541.733 118.512 544.891 117.488C548.048 116.379 550.779 114.757 553.083 112.624L561.403 125.808C557.563 128.88 553.168 131.184 548.219 132.72C543.269 134.256 538.064 135.024 532.603 135.024C525.52 135.024 519.291 133.787 513.915 131.312C508.624 128.752 504.528 125.125 501.627 120.432C498.811 115.739 497.403 110.32 497.403 104.176C497.403 96.5813 499.109 89.7547 502.523 83.696C505.936 77.552 510.715 72.7733 516.859 69.36C523.088 65.8613 530.128 64.112 537.979 64.112ZM537.083 79.088C531.707 79.088 527.312 80.7093 523.899 83.952C520.571 87.1947 518.395 91.5467 517.371 97.008L552.187 90.608C551.675 86.9387 550.053 84.1227 547.323 82.16C544.677 80.112 541.264 79.088 537.083 79.088ZM608.257 135.536C601.174 135.536 594.39 134.597 587.905 132.72C581.419 130.843 576.214 128.453 572.288 125.552L580.737 109.552C584.833 112.539 589.441 114.843 594.561 116.464C599.681 118.085 604.929 118.896 610.305 118.896C616.022 118.896 620.545 117.957 623.873 116.08C627.201 114.203 628.865 111.643 628.865 108.4C628.865 105.755 627.542 103.749 624.897 102.384C622.251 100.933 618.027 99.3973 612.225 97.776C606.422 96.0693 601.686 94.448 598.017 92.912C594.347 91.2907 591.147 88.9013 588.417 85.744C585.771 82.5867 584.449 78.4053 584.449 73.2C584.449 67.1413 586.113 61.808 589.441 57.2C592.854 52.592 597.633 49.0507 603.777 46.576C610.006 44.1013 617.217 42.864 625.409 42.864C631.467 42.864 637.185 43.5467 642.561 44.912C647.937 46.192 652.545 48.0693 656.385 50.544L648.576 66.416C645.249 64.112 641.494 62.4053 637.312 61.296C633.131 60.1013 628.779 59.504 624.257 59.504C618.369 59.504 613.718 60.528 610.305 62.576C606.891 64.624 605.185 67.2693 605.185 70.512C605.185 72.4747 605.91 74.1387 607.361 75.504C608.811 76.784 610.646 77.8507 612.865 78.704C615.083 79.472 618.198 80.4107 622.209 81.52C627.926 83.056 632.619 84.6347 636.289 86.256C639.958 87.792 643.073 90.096 645.632 93.168C648.278 96.1547 649.601 100.123 649.601 105.072C649.601 111.216 647.894 116.592 644.481 121.2C641.067 125.723 636.246 129.264 630.017 131.824C623.787 134.299 616.534 135.536 608.257 135.536ZM681.69 109.68C681.519 110.363 681.434 111.301 681.434 112.496C681.434 116.933 683.823 119.152 688.602 119.152C691.332 119.152 694.063 118.341 696.794 116.72L699.738 130.928C695.3 133.659 689.54 135.024 682.458 135.024C675.972 135.024 670.767 133.317 666.842 129.904C663.002 126.491 661.082 121.797 661.082 115.824C661.082 114.117 661.295 112.112 661.722 109.808L673.626 49.904H693.594L690.266 66.672H707.29L704.218 82.032H687.194L681.69 109.68ZM789.403 119.152C791.707 119.152 793.627 118.811 795.163 118.128L793.115 133.36C789.701 134.469 786.075 135.024 782.235 135.024C777.285 135.024 773.189 134.043 769.947 132.08C766.789 130.117 764.613 127.387 763.419 123.888C757.36 131.312 749.253 135.024 739.099 135.024C733.723 135.024 728.773 133.787 724.251 131.312C719.728 128.837 716.101 125.296 713.371 120.688C710.725 115.995 709.403 110.491 709.403 104.176C709.403 96.5813 711.067 89.7547 714.395 83.696C717.808 77.552 722.416 72.7733 728.219 69.36C734.021 65.8613 740.421 64.112 747.419 64.112C758 64.112 765.467 67.568 769.819 74.48L771.611 65.136H791.579L782.619 109.808C782.448 110.491 782.363 111.429 782.363 112.624C782.363 114.843 782.96 116.507 784.155 117.616C785.435 118.64 787.184 119.152 789.403 119.152ZM745.243 118.512C749.168 118.512 752.667 117.573 755.739 115.696C758.811 113.733 761.2 111.045 762.907 107.632C764.613 104.219 765.467 100.293 765.467 95.856C765.467 91.1627 764.059 87.4507 761.243 84.72C758.512 81.9893 754.672 80.624 749.723 80.624C745.797 80.624 742.299 81.6053 739.227 83.568C736.155 85.4453 733.765 88.0907 732.059 91.504C730.352 94.9173 729.499 98.8427 729.499 103.28C729.499 107.973 730.864 111.685 733.595 114.416C736.411 117.147 740.293 118.512 745.243 118.512ZM903.091 64.112C910.6 64.112 916.573 66.16 921.011 70.256C925.448 74.2667 927.667 79.984 927.667 87.408C927.667 90.1387 927.368 92.9547 926.771 95.856L919.219 134H899.251L906.547 97.264C906.888 95.5573 907.059 93.808 907.059 92.016C907.059 88.5173 906.12 85.872 904.243 84.08C902.451 82.288 899.763 81.392 896.179 81.392C886.536 81.392 880.52 87.152 878.131 98.672L871.09 134H851.123L858.419 97.264C858.76 95.5573 858.931 93.8507 858.931 92.144C858.931 88.6453 857.992 86 856.115 84.208C854.323 82.3307 851.635 81.392 848.051 81.392C838.408 81.392 832.349 87.2373 829.875 98.928L822.963 134H802.995L816.691 65.136H835.635L834.099 72.304C840.072 66.8427 847.283 64.112 855.731 64.112C860.509 64.112 864.733 65.0933 868.403 67.056C872.157 68.9333 874.973 71.7067 876.851 75.376C880.179 71.7067 884.061 68.9333 888.499 67.056C892.936 65.0933 897.8 64.112 903.091 64.112ZM989.597 64.112C994.973 64.112 999.922 65.3493 1004.44 67.824C1009.05 70.2987 1012.68 73.8827 1015.32 78.576C1018.06 83.184 1019.42 88.6453 1019.42 94.96C1019.42 102.555 1017.71 109.424 1014.3 115.568C1010.97 121.627 1006.41 126.405 1000.6 129.904C994.802 133.317 988.359 135.024 981.277 135.024C970.781 135.024 963.357 131.611 959.005 124.784L952.221 158.832H932.252L950.941 65.136H969.885L968.477 71.92C974.194 66.7147 981.234 64.112 989.597 64.112ZM978.973 118.512C982.898 118.512 986.397 117.573 989.469 115.696C992.541 113.733 994.93 111.045 996.637 107.632C998.343 104.219 999.197 100.293 999.197 95.856C999.197 91.1627 997.789 87.4507 994.973 84.72C992.242 81.9893 988.402 80.624 983.453 80.624C979.613 80.624 976.157 81.6053 973.085 83.568C970.013 85.4453 967.623 88.0907 965.917 91.504C964.21 94.9173 963.357 98.8427 963.357 103.28C963.357 107.973 964.722 111.685 967.453 114.416C970.183 117.147 974.023 118.512 978.973 118.512Z" fill="black"/>
<defs>
<clipPath id="clip0_119_21">
<rect width="183" height="160" fill="white"/>
</clipPath>
</defs>
</svg>
