<svg width="111" height="83" viewBox="0 0 111 83" fill="none" xmlns="http://www.w3.org/2000/svg">
<path fill-rule="evenodd" clip-rule="evenodd" d="M41.5588 10.5875C41.5588 7.84526 42.6511 5.21538 44.5955 3.27636C46.5399 1.33733 49.177 0.248001 51.9267 0.248001H58.8387C61.5884 0.248001 64.2256 1.33733 66.1699 3.27636C68.1143 5.21538 69.2066 7.84526 69.2066 10.5875V17.4804C69.2066 20.2226 68.1143 22.8525 66.1699 24.7915C64.2256 26.7305 61.5884 27.8199 58.8387 27.8199V34.7128H96.8545C97.771 34.7128 98.6501 35.076 99.2982 35.7223C99.9463 36.3686 100.31 37.2453 100.31 38.1593V45.0523C100.31 45.9664 99.9463 46.843 99.2982 47.4893C98.6501 48.1357 97.771 48.4988 96.8545 48.4988C95.9379 48.4988 95.0588 48.1357 94.4107 47.4893C93.7626 46.843 93.3985 45.9664 93.3985 45.0523V41.6058H58.8387V45.0523C58.8387 45.9664 58.4746 46.843 57.8265 47.4893C57.1783 48.1357 56.2993 48.4988 55.3827 48.4988C54.4661 48.4988 53.5871 48.1357 52.939 47.4893C52.2908 46.843 51.9267 45.9664 51.9267 45.0523V41.6058H17.3669V45.0523C17.3669 45.9664 17.0028 46.843 16.3547 47.4893C15.7066 48.1357 14.8275 48.4988 13.911 48.4988C12.9944 48.4988 12.1153 48.1357 11.4672 47.4893C10.8191 46.843 10.455 45.9664 10.455 45.0523V38.1593C10.455 37.2453 10.8191 36.3686 11.4672 35.7223C12.1153 35.076 12.9944 34.7128 13.911 34.7128H51.9267V27.8199C49.177 27.8199 46.5399 26.7305 44.5955 24.7915C42.6511 22.8525 41.5588 20.2226 41.5588 17.4804V10.5875ZM58.8387 20.9269C59.7553 20.9269 60.6343 20.5638 61.2824 19.9175C61.9306 19.2711 62.2947 18.3945 62.2947 17.4804V10.5875C62.2947 9.67339 61.9306 8.79676 61.2824 8.15042C60.6343 7.50408 59.7553 7.14097 58.8387 7.14097H51.9267C51.0101 7.14097 50.1311 7.50408 49.483 8.15042C48.8349 8.79676 48.4707 9.67339 48.4707 10.5875V17.4804C48.4707 18.3945 48.8349 19.2711 49.483 19.9175C50.1311 20.5638 51.0101 20.9269 51.9267 20.9269H58.8387ZM0.0870361 65.7312C0.0870361 62.989 1.17937 60.3591 3.12373 58.4201C5.0681 56.4811 7.70523 55.3918 10.455 55.3918H17.3669C20.1167 55.3918 22.7538 56.4811 24.6982 58.4201C26.6425 60.3591 27.7349 62.989 27.7349 65.7312V72.6242C27.7349 75.3664 26.6425 77.9963 24.6982 79.9353C22.7538 81.8743 20.1167 82.9636 17.3669 82.9636H10.455C7.70523 82.9636 5.0681 81.8743 3.12373 79.9353C1.17937 77.9963 0.0870361 75.3664 0.0870361 72.6242L0.0870361 65.7312ZM10.455 62.2847C9.53839 62.2847 8.65935 62.6478 8.01123 63.2942C7.36311 63.9405 6.99899 64.8171 6.99899 65.7312V72.6242C6.99899 73.5382 7.36311 74.4149 8.01123 75.0612C8.65935 75.7076 9.53839 76.0707 10.455 76.0707H17.3669C18.2835 76.0707 19.1626 75.7076 19.8107 75.0612C20.4588 74.4149 20.8229 73.5382 20.8229 72.6242V65.7312C20.8229 64.8171 20.4588 63.9405 19.8107 63.2942C19.1626 62.6478 18.2835 62.2847 17.3669 62.2847H10.455ZM41.5588 65.7312C41.5588 62.989 42.6511 60.3591 44.5955 58.4201C46.5399 56.4811 49.177 55.3918 51.9267 55.3918H58.8387C61.5884 55.3918 64.2256 56.4811 66.1699 58.4201C68.1143 60.3591 69.2066 62.989 69.2066 65.7312V72.6242C69.2066 75.3664 68.1143 77.9963 66.1699 79.9353C64.2256 81.8743 61.5884 82.9636 58.8387 82.9636H51.9267C49.177 82.9636 46.5399 81.8743 44.5955 79.9353C42.6511 77.9963 41.5588 75.3664 41.5588 72.6242V65.7312ZM51.9267 62.2847C51.0101 62.2847 50.1311 62.6478 49.483 63.2942C48.8349 63.9405 48.4707 64.8171 48.4707 65.7312V72.6242C48.4707 73.5382 48.8349 74.4149 49.483 75.0612C50.1311 75.7076 51.0101 76.0707 51.9267 76.0707H58.8387C59.7553 76.0707 60.6343 75.7076 61.2824 75.0612C61.9306 74.4149 62.2947 73.5382 62.2947 72.6242V65.7312C62.2947 64.8171 61.9306 63.9405 61.2824 63.2942C60.6343 62.6478 59.7553 62.2847 58.8387 62.2847H51.9267ZM83.0305 65.7312C83.0305 62.989 84.1229 60.3591 86.0672 58.4201C88.0116 56.4811 90.6487 55.3918 93.3985 55.3918H100.31C103.06 55.3918 105.697 56.4811 107.642 58.4201C109.586 60.3591 110.678 62.989 110.678 65.7312V72.6242C110.678 75.3664 109.586 77.9963 107.642 79.9353C105.697 81.8743 103.06 82.9636 100.31 82.9636H93.3985C90.6487 82.9636 88.0116 81.8743 86.0672 79.9353C84.1229 77.9963 83.0305 75.3664 83.0305 72.6242V65.7312ZM93.3985 62.2847C92.4819 62.2847 91.6029 62.6478 90.9547 63.2942C90.3066 63.9405 89.9425 64.8171 89.9425 65.7312V72.6242C89.9425 73.5382 90.3066 74.4149 90.9547 75.0612C91.6029 75.7076 92.4819 76.0707 93.3985 76.0707H100.31C101.227 76.0707 102.106 75.7076 102.754 75.0612C103.402 74.4149 103.766 73.5382 103.766 72.6242V65.7312C103.766 64.8171 103.402 63.9405 102.754 63.2942C102.106 62.6478 101.227 62.2847 100.31 62.2847H93.3985Z" fill="#FFC179"/>
</svg>
