<!-- <svg xmlns="http://www.w3.org/2000/svg" width="16" height="16" fill="currentColor" class="bi bi-file-person" viewBox="0 0 16 16">
    <path d="M12 1a1 1 0 0 1 1 1v10.755S12 11 8 11s-5 1.755-5 1.755V2a1 1 0 0 1 1-1h8zM4 0a2 2 0 0 0-2 2v12a2 2 0 0 0 2 2h8a2 2 0 0 0 2-2V2a2 2 0 0 0-2-2H4z"/>
    <path d="M8 10a3 3 0 1 0 0-6 3 3 0 0 0 0 6z"/>
  </svg> -->

<svg xmlns="http://www.w3.org/2000/svg" width="16" height="16" fill="currentColor" class="bi bi-person-circle" viewBox="0 0 16 16">
  <path d="M11 6a3 3 0 1 1-6 0 3 3 0 0 1 6 0z"/>
  <path fill-rule="evenodd" d="M0 8a8 8 0 1 1 16 0A8 8 0 0 1 0 8zm8-7a7 7 0 0 0-5.468 11.37C3.242 11.226 4.805 10 8 10s4.757 1.225 5.468 2.37A7 7 0 0 0 8 1z"/>
</svg>
