<svg width="85" height="85" viewBox="0 0 85 85" fill="none" xmlns="http://www.w3.org/2000/svg">
<path d="M62.3794 54.9525C67.5234 47.933 69.8274 39.2301 68.8304 30.5849C67.8333 21.9396 63.6088 13.9896 57.0019 8.32538C50.395 2.66114 41.893 -0.299606 33.1969 0.0354699C24.5008 0.370546 16.2519 3.97674 10.1005 10.1326C3.94906 16.2884 0.348777 24.5399 0.019924 33.2362C-0.308929 41.9326 2.6579 50.4324 8.32686 57.0352C13.9958 63.6381 21.9488 67.8569 30.5948 68.8478C39.2408 69.8387 47.942 67.5285 54.9578 62.3794H54.9525C55.1119 62.5919 55.2819 62.7937 55.4731 62.9903L75.9263 83.4434C76.9224 84.4403 78.2737 85.0006 79.683 85.0011C81.0922 85.0016 82.4439 84.4422 83.4408 83.4461C84.4376 82.45 84.9979 81.0986 84.9984 79.6894C84.9989 78.2801 84.4396 76.9284 83.4434 75.9316L62.9903 55.4784C62.8004 55.2862 62.5962 55.1086 62.3794 54.9472V54.9525ZM63.75 34.5313C63.75 38.3683 62.9942 42.1678 61.5259 45.7128C60.0575 49.2578 57.9052 52.4788 55.192 55.192C52.4788 57.9052 49.2578 60.0575 45.7128 61.5259C42.1678 62.9942 38.3683 63.75 34.5313 63.75C30.6942 63.75 26.8947 62.9942 23.3497 61.5259C19.8047 60.0575 16.5837 57.9052 13.8705 55.192C11.1573 52.4788 9.00503 49.2578 7.53665 45.7128C6.06827 42.1678 5.31251 38.3683 5.31251 34.5313C5.31251 26.782 8.39091 19.3501 13.8705 13.8705C19.3501 8.3909 26.782 5.3125 34.5313 5.3125C42.2806 5.3125 49.7125 8.3909 55.192 13.8705C60.6716 19.3501 63.75 26.782 63.75 34.5313V34.5313Z" fill="#FFC179"/>
</svg>
